HIERARCHY
ROOT Pelvis
{
	OFFSET 0.000000 0.941512 0.000000
	CHANNELS 6 Xposition Yposition Zposition Zrotation Yrotation Xrotation 
	JOINT Pelvis_L_Hip
	{
		OFFSET 0.000000 0.000000 0.000000
		CHANNELS 3 Zrotation Yrotation Xrotation
		JOINT L_Hip
		{
			OFFSET 0.062321 -0.080322 -0.016990
			CHANNELS 3 Zrotation Yrotation Xrotation
			JOINT L_Knee
			{
				OFFSET 0.093051 -0.381305 -0.029784
				CHANNELS 3 Zrotation Yrotation Xrotation
				JOINT L_Ankle
				{
					OFFSET -0.010371 -0.431000 -0.033614
					CHANNELS 3 Zrotation Yrotation Xrotation
					End Site #name: L_Foot
					{
						OFFSET 0.069299 -0.038670 0.119418
					}
				}
			}
		}
	}
	JOINT Pelvis_R_Hip
	{
		OFFSET 0.000000 0.000000 0.000000
		CHANNELS 3 Zrotation Yrotation Xrotation
		JOINT R_Hip
		{
			OFFSET -0.055334 -0.094904 -0.002373
			CHANNELS 3 Zrotation Yrotation Xrotation
			JOINT R_Knee
			{
				OFFSET -0.064207 -0.384370 -0.019592
				CHANNELS 3 Zrotation Yrotation Xrotation
				JOINT R_Ankle
				{
					OFFSET 0.025418 -0.419734 -0.065953
					CHANNELS 3 Zrotation Yrotation Xrotation
					End Site #name: R_Foot
					{
						OFFSET -0.057233 -0.039888 0.132134
					}
				}
			}
		}
	}
	JOINT Pelvis_Spine1
	{
		OFFSET 0.000000 0.000000 0.000000
		CHANNELS 3 Zrotation Yrotation Xrotation
		JOINT Spine1
		{
			OFFSET -0.005562 0.124093 -0.043360
			CHANNELS 3 Zrotation Yrotation Xrotation
			JOINT Spine2
			{
				OFFSET 0.012244 0.139499 0.029894
				CHANNELS 3 Zrotation Yrotation Xrotation
				JOINT Spine3
				{
					OFFSET -0.002556 0.056561 0.009225
					CHANNELS 3 Zrotation Yrotation Xrotation
					JOINT Spine3_Neck
					{
						OFFSET 0.000000 0.000000 0.000000
						CHANNELS 3 Zrotation Yrotation Xrotation
						JOINT Neck
						{
							OFFSET -0.005205 0.217920 -0.024551
							CHANNELS 3 Zrotation Yrotation Xrotation
							End Site #name: Head
							{
								OFFSET 0.002365 0.091850 0.046637
							}
						}
					}
					JOINT Spine3_L_Collar
					{
						OFFSET 0.000000 0.000000 0.000000
						CHANNELS 3 Zrotation Yrotation Xrotation
						JOINT L_Collar
						{
							OFFSET 0.072225 0.116603 -0.009480
							CHANNELS 3 Zrotation Yrotation Xrotation
							JOINT L_Shoulder
							{
								OFFSET 0.115937 -0.058643 -0.021018
								CHANNELS 3 Zrotation Yrotation Xrotation
								JOINT L_Elbow
								{
									OFFSET 0.021994 -0.254722 -0.024492
									CHANNELS 3 Zrotation Yrotation Xrotation
									End Site #name: L_Wrist
									{
										OFFSET 0.048810 -0.240214 0.103329
									}
								}
							}
						}
					}
					JOINT Spine3_R_Collar
					{
						OFFSET 0.000000 0.000000 0.000000
						CHANNELS 3 Zrotation Yrotation Xrotation
						JOINT R_Collar
						{
							OFFSET -0.073372 0.120704 -0.024611
							CHANNELS 3 Zrotation Yrotation Xrotation
							JOINT R_Shoulder
							{
								OFFSET -0.108089 -0.054969 -0.020504
								CHANNELS 3 Zrotation Yrotation Xrotation
								JOINT R_Elbow
								{
									OFFSET -0.033684 -0.260739 0.009889
									CHANNELS 3 Zrotation Yrotation Xrotation
									End Site #name: R_Wrist
									{
										OFFSET -0.067980 -0.232763 0.118463
									}
								}
							}
						}
					}
				}
			}
		}
	}
}
MOTION
Frames: 15
Frame Time: 0.041667
0.000000 0.914704 0.000000 3.524757 -1.508784 -2.414865 0.000000 0.000000 0.000000 -7.924920 -6.635711 -22.723453 -2.322504 0.174106 21.557417 -1.126269 -2.662033 0.473181 0.000000 0.000000 0.000000 -0.070002 4.060041 -24.099286 6.656032 -0.208493 66.389542 -4.588601 -10.376551 -3.791045 0.000000 0.000000 0.000000 0.303541 -1.011221 10.940582 -3.466642 -0.439522 -13.723957 1.800050 2.473848 10.347009 0.000000 0.000000 0.000000 -6.885007 3.975368 6.904957 0.000000 0.000000 0.000000 20.932644 -11.451665 -4.402020 -18.922826 -5.410438 -30.102019 9.851899 0.698643 -30.626654 0.000000 0.000000 0.000000 -31.340215 10.657706 -3.115424 23.486566 -3.052012 10.356691 -3.115264 10.600471 -38.376512 
-0.005028 0.912280 -0.021233 3.538194 -0.747991 -1.684355 0.000000 0.000000 0.000000 -7.285914 -7.030022 -24.242392 -2.175155 0.105162 20.098984 -2.453645 -3.058104 2.472684 0.000000 0.000000 0.000000 1.730801 4.242266 -23.595120 2.815632 2.955503 66.409608 -1.222592 -5.382276 1.115931 0.000000 0.000000 0.000000 0.308524 -0.938875 9.875856 -3.492723 -0.388570 -12.868981 1.542294 2.423139 9.691542 0.000000 0.000000 0.000000 -7.223913 4.147054 6.796737 0.000000 0.000000 0.000000 20.503334 -12.440479 -5.164336 -19.818177 -5.397348 -29.324518 9.709889 0.578574 -30.622874 0.000000 0.000000 0.000000 -31.817106 10.566055 -3.085436 20.918131 -2.779776 10.226219 -6.122800 7.860124 -39.597457 
-0.013605 0.909980 -0.045262 3.681089 -0.462245 -1.283103 0.000000 0.000000 0.000000 -7.178372 -7.237490 -24.948596 -0.896750 -0.198627 17.530759 -4.131234 -3.329738 5.066841 0.000000 0.000000 0.000000 3.127813 3.857730 -20.568252 -1.908217 6.173070 59.595834 0.267039 3.377307 -1.611314 0.000000 0.000000 0.000000 0.241028 -0.851255 9.055854 -4.044579 -0.276913 -11.746115 1.300473 2.119214 9.056340 0.000000 0.000000 0.000000 -7.330259 4.206136 6.841247 0.000000 0.000000 0.000000 20.120786 -12.880662 -5.552692 -19.738215 -4.818836 -27.042752 9.052945 -0.021980 -31.241717 0.000000 0.000000 0.000000 -31.812462 10.601872 -3.092550 17.971911 -2.213032 9.102577 -7.759091 6.387169 -40.466484 
-0.024024 0.909567 -0.074866 3.368860 -0.334859 -0.475147 0.000000 0.000000 0.000000 -6.194092 -7.371931 -25.958421 0.420560 -0.420105 14.113644 -6.984914 -3.774559 9.362470 0.000000 0.000000 0.000000 3.773473 3.513795 -18.476849 -3.341356 6.204954 52.271729 -2.193297 4.334608 -7.562864 0.000000 0.000000 0.000000 0.626458 -0.896613 8.247821 -4.454107 -0.179179 -10.836159 0.975981 1.987472 8.597614 0.000000 0.000000 0.000000 -7.171110 4.083018 6.447968 0.000000 0.000000 0.000000 19.205320 -12.579148 -5.374649 -19.388678 -4.192971 -24.702642 7.980798 -0.977000 -31.868449 0.000000 0.000000 0.000000 -31.529270 10.736586 -3.238220 15.081382 -1.530106 7.239531 -9.472087 4.705705 -41.052429 
-0.036406 0.914226 -0.106845 2.260350 -0.562272 -0.108254 0.000000 0.000000 0.000000 -3.893174 -6.862778 -25.606361 1.305011 -0.414933 8.843319 -11.015037 -4.447057 15.167253 0.000000 0.000000 0.000000 4.789297 3.411779 -17.396298 -1.684418 4.272575 45.187234 -4.317052 0.302238 -10.306806 0.000000 0.000000 0.000000 1.316457 -1.095879 8.205902 -4.713595 -0.045839 -9.478808 1.265726 2.050169 7.453651 0.000000 0.000000 0.000000 -7.201531 4.091814 6.579246 0.000000 0.000000 0.000000 18.036338 -11.835593 -4.898233 -19.469024 -3.538357 -21.935002 7.305894 -1.786178 -33.340074 0.000000 0.000000 0.000000 -31.412437 11.492473 -3.944656 12.789742 -0.914050 5.196146 -10.978148 2.943597 -40.505198 
-0.045559 0.918476 -0.140685 1.880463 -0.952674 0.697737 0.000000 0.000000 0.000000 -2.075248 -6.826761 -26.705683 0.409383 -0.289309 9.499933 -9.760554 -5.687145 12.578402 0.000000 0.000000 0.000000 4.720626 3.644677 -18.512964 -0.285025 3.071441 40.760466 -4.925051 -1.381191 -10.838845 0.000000 0.000000 0.000000 1.645999 -1.157569 7.880573 -5.024382 0.030875 -8.922614 1.329262 2.359333 7.274063 0.000000 0.000000 0.000000 -6.935986 3.861066 5.134680 0.000000 0.000000 0.000000 18.293687 -10.657757 -3.986158 -20.376086 -2.982404 -19.517038 6.333906 -3.184848 -36.321484 0.000000 0.000000 0.000000 -32.079567 12.169168 -4.557888 11.994617 -0.267983 2.546881 -12.492791 1.216083 -40.005653 
-0.052899 0.923834 -0.172403 1.781324 -1.368618 0.339566 0.000000 0.000000 0.000000 -2.126625 -7.112049 -27.810169 -0.606094 -0.277938 19.414583 -3.364809 -4.067820 3.437308 0.000000 0.000000 0.000000 4.994025 3.766630 -18.881121 0.125521 2.632692 37.566042 -4.870373 -2.372851 -10.100108 0.000000 0.000000 0.000000 1.213482 -1.093910 8.590836 -4.884842 0.079803 -8.245282 1.877724 3.227833 7.270922 0.000000 0.000000 0.000000 -6.630522 3.612917 3.753817 0.000000 0.000000 0.000000 19.072847 -9.153640 -2.708878 -20.836937 -2.211602 -16.531469 4.993762 -5.698036 -42.079747 0.000000 0.000000 0.000000 -33.010363 13.291887 -5.735921 11.706581 0.015977 1.338988 -14.633237 -0.900171 -40.558407 
-0.057843 0.930509 -0.201996 1.576820 -2.029663 -0.030900 0.000000 0.000000 0.000000 -3.591969 -7.460458 -28.207119 -0.797285 -0.335813 32.053901 0.595214 -0.826233 -1.503603 0.000000 0.000000 0.000000 5.414749 3.858145 -18.996866 -0.167593 2.587141 34.392081 -4.135905 -2.094562 -8.374493 0.000000 0.000000 0.000000 0.778972 -0.927069 8.307745 -4.301414 0.165362 -6.557897 2.817925 4.547577 7.161958 0.000000 0.000000 0.000000 -6.718574 3.630517 3.395884 0.000000 0.000000 0.000000 20.113662 -7.019571 -0.852516 -20.863480 -1.084088 -12.327456 4.657578 -8.427512 -51.012851 0.000000 0.000000 0.000000 -34.602269 14.998746 -7.608559 11.903035 0.099607 1.038431 -16.862933 -3.147706 -40.967179 
-0.059644 0.937164 -0.228417 0.910120 -1.997645 -0.485966 0.000000 0.000000 0.000000 -4.164097 -7.332850 -27.351050 -2.906899 0.617087 44.357018 1.644802 -0.654164 -3.250315 0.000000 0.000000 0.000000 6.028601 3.849990 -18.604438 -0.755148 2.564353 31.145524 -2.926462 -0.992350 -6.126471 0.000000 0.000000 0.000000 1.112532 -0.994346 7.969744 -3.419469 0.103272 -6.131163 3.562755 5.734387 7.524823 0.000000 0.000000 0.000000 -6.623689 3.585066 4.150511 0.000000 0.000000 0.000000 22.088902 -3.865780 2.103007 -20.880312 0.109360 -7.995258 5.811860 -10.094075 -61.091985 0.000000 0.000000 0.000000 -35.758280 15.530578 -8.458421 12.549213 0.426359 -0.242854 -18.176101 -4.567998 -40.526270 
-0.060417 0.940781 -0.253709 -0.321750 -1.523174 -0.530981 0.000000 0.000000 0.000000 -4.178887 -6.774022 -25.306880 -4.483417 1.623800 54.318847 2.132547 1.181446 -3.109454 0.000000 0.000000 0.000000 7.317246 3.979053 -18.502753 -2.009860 2.792099 28.240493 -1.580730 1.014001 -4.253662 0.000000 0.000000 0.000000 1.587466 -0.951810 6.070174 -2.020014 -0.005051 -5.386569 4.445484 6.875776 8.350449 0.000000 0.000000 0.000000 -5.921357 3.183084 4.920180 0.000000 0.000000 0.000000 24.846670 -0.884295 5.358829 -20.674914 0.778893 -5.673617 8.400132 -9.112180 -69.780818 0.000000 0.000000 0.000000 -36.571875 15.450918 -8.770434 13.153901 0.667840 -1.137912 -18.474984 -4.925478 -40.064171 
-0.059633 0.941962 -0.279049 -1.666661 -0.587475 -0.634356 0.000000 0.000000 0.000000 -3.196193 -5.507521 -21.164249 -5.544605 2.237155 59.745734 0.601797 1.083974 -0.436059 0.000000 0.000000 0.000000 8.597049 4.062666 -18.263860 -2.718522 2.704007 25.140770 -0.622231 1.963391 -2.706365 0.000000 0.000000 0.000000 2.426021 -0.971409 4.083507 -0.994438 -0.095217 -4.812377 5.053483 7.532736 9.017056 0.000000 0.000000 0.000000 -4.937065 2.596375 5.961744 0.000000 0.000000 0.000000 27.340062 1.133896 7.988319 -19.014466 0.727648 -5.665838 12.412972 -4.177580 -76.633504 0.000000 0.000000 0.000000 -37.167726 15.097732 -8.776986 14.367613 0.854285 -1.644830 -17.418086 -3.818363 -40.060428 
-0.057223 0.942713 -0.305009 -2.599675 0.485710 -1.057302 0.000000 0.000000 0.000000 -2.337417 -3.721830 -14.769980 -4.599163 1.249287 59.445234 -1.014188 -2.681371 0.260868 0.000000 0.000000 0.000000 8.949599 4.042549 -18.058695 -2.496043 2.294541 22.373085 0.270470 2.077364 -0.789656 0.000000 0.000000 0.000000 3.123865 -0.929956 2.214039 -0.577814 -0.083828 -3.530907 5.406504 8.036326 8.657033 0.000000 0.000000 0.000000 -3.976055 1.968018 7.463409 0.000000 0.000000 0.000000 28.622726 1.990801 9.399237 -15.538438 -0.378603 -9.685226 17.056995 4.137525 -79.271432 0.000000 0.000000 0.000000 -36.840530 14.818902 -8.795942 15.882734 0.811651 -1.154515 -16.052283 -2.351633 -40.198682 
-0.051436 0.942010 -0.336580 -2.908739 1.923463 -0.377727 0.000000 0.000000 0.000000 -1.845150 -2.355321 -9.658203 -2.173632 -0.641987 54.232633 -3.756684 -7.770065 2.072802 0.000000 0.000000 0.000000 7.968408 4.483099 -20.528693 -1.704088 1.862207 21.482762 1.006361 1.136471 1.539342 0.000000 0.000000 0.000000 3.363633 -0.713949 -0.057878 -0.020169 -0.153646 -3.393905 5.545073 8.264464 8.592623 0.000000 0.000000 0.000000 -3.347414 1.505405 8.655261 0.000000 0.000000 0.000000 28.958829 1.622334 9.478147 -11.145802 -1.867114 -17.347890 21.482791 12.460553 -77.830878 0.000000 0.000000 0.000000 -35.954998 14.158848 -8.390303 17.073594 0.625550 -0.290544 -14.229694 -0.233243 -41.088599 
-0.042083 0.940414 -0.373169 -3.138931 3.268076 -0.026827 0.000000 0.000000 0.000000 -1.856732 -0.959677 -4.311571 2.052187 -2.632736 43.099109 -4.878340 -16.950991 -0.307418 0.000000 0.000000 0.000000 6.905582 4.831510 -22.892237 -1.619181 1.694317 20.409516 1.870238 0.275032 4.234343 0.000000 0.000000 0.000000 3.919484 -0.744752 -0.753862 0.188748 -0.203305 -3.811265 5.740317 8.317168 8.532749 0.000000 0.000000 0.000000 -3.233334 1.388712 8.768425 0.000000 0.000000 0.000000 28.961931 0.277206 8.548507 -7.402079 -3.017798 -26.418142 25.697595 19.331369 -74.864330 0.000000 0.000000 0.000000 -35.426655 13.650086 -8.104065 18.538602 0.511247 0.293944 -13.572071 0.715743 -42.103567 
-0.029720 0.939029 -0.416509 -3.120328 4.210944 0.595392 0.000000 0.000000 0.000000 -2.541195 -0.169496 -1.455614 4.211717 -2.811770 32.950162 0.236803 -20.187998 -8.821893 0.000000 0.000000 0.000000 5.208086 5.034087 -25.344450 -1.891955 1.603353 18.218182 3.632365 0.276630 8.393350 0.000000 0.000000 0.000000 4.283332 -0.937502 0.089241 0.453203 -0.313287 -5.441042 6.062983 8.105587 8.945473 0.000000 0.000000 0.000000 -3.440346 1.536649 7.931683 0.000000 0.000000 0.000000 29.185888 -1.939299 6.779379 -4.781980 -3.772960 -35.442402 29.905616 25.097150 -71.532232 0.000000 0.000000 0.000000 -35.372199 13.595515 -8.168150 20.131321 0.521516 0.384832 -14.579919 -0.031078 -43.632910 
